<svg xmlns="http://www.w3.org/2000/svg" viewBox="0 0 48 48" id="Bee"><g data-name="Your Icons" fill="#34a853" class="color000000 svgShape"><path fill="#fbbc05" d="M30,34a1,1,0,0,1-1,1H19a1,1,0,0,1,0-2H29A1,1,0,0,1,30,34Z" class="colora2a62e svgShape"></path><path fill="#ea4335" d="M30,19a1,1,0,0,0,1-1V17a7,7,0,0,0-7-7,7,7,0,0,0-7,7v1a1,1,0,0,0,1,1h2.5v5.43a7.61,7.61,0,0,1-3.09,6.1,1,1,0,0,0-.41.81V32a7,7,0,0,0,6,6.92,6.17,6.17,0,0,0,2,0A7,7,0,0,0,31,32v-.66a1,1,0,0,0-.41-.81,7.61,7.61,0,0,1-3.09-6.1V19Zm-3.5-2a.64.64,0,0,0-.24,0h0a1,1,0,0,0-.75,1v6.43c0,.19,0,.38,0,.57a9.63,9.63,0,0,0,.35,2,8.92,8.92,0,0,0,.81,2,9.34,9.34,0,0,0,1.44,2,7.88,7.88,0,0,0,.89.84V32a4.71,4.71,0,0,1-.1,1,4.92,4.92,0,0,1-.9,2,5,5,0,0,1-8,0,4.92,4.92,0,0,1-.9-2,4.71,4.71,0,0,1-.1-1v-.17a7.88,7.88,0,0,0,.89-.84,9.34,9.34,0,0,0,1.44-2,8.92,8.92,0,0,0,.81-2,9.63,9.63,0,0,0,.35-2c0-.19,0-.38,0-.57V18a1,1,0,0,0-.75-1h0a.64.64,0,0,0-.24,0H19a5,5,0,0,1,10,0Z" class="colore7600e svgShape"></path><path fill="#fbbc05" d="M22 14a1 1 0 0 1-1-1 5 5 0 0 0-5-5 1 1 0 0 1 0-2 7 7 0 0 1 7 7A1 1 0 0 1 22 14zM26 14a1 1 0 0 1-1-1 7 7 0 0 1 7-7 1 1 0 0 1 0 2 5 5 0 0 0-5 5A1 1 0 0 1 26 14z" class="colora2a62e svgShape"></path><path fill="#ea4335" d="M24,42a1,1,0,0,1-1-1V39a1,1,0,0,1,2,0v2A1,1,0,0,1,24,42Z" class="colore7600e svgShape"></path><path fill="#fbbc05" d="M27 22a1 1 0 0 1-1 1H22a1 1 0 0 1 0-2h4A1 1 0 0 1 27 22zM27 18a1 1 0 0 1-1 1H22a1 1 0 0 1-1-1 1 1 0 0 1 .74-1h0A.69.69 0 0 1 22 17h4a.69.69 0 0 1 .25 0h0A1 1 0 0 1 27 18zM27 26a1 1 0 0 1-1 1H22a1 1 0 0 1 0-2h4A1 1 0 0 1 27 26zM29 30a1 1 0 0 1-.89 1H19.89A1 1 0 0 1 20 29h8A1 1 0 0 1 29 30z" class="colora2a62e svgShape"></path><path fill="#ea4335" d="M32.93 17H26.5a1 1 0 0 0-1 1v6.43a9.63 9.63 0 0 0 3.91 7.72A9.51 9.51 0 0 0 35.07 34a7.43 7.43 0 0 0 7.43-7.43A9.58 9.58 0 0 0 32.93 17zm6 13.41A5.43 5.43 0 0 1 35.07 32a7.57 7.57 0 0 1-7.57-7.57V19h5.43a7.58 7.58 0 0 1 7.57 7.57A5.42 5.42 0 0 1 38.92 30.41zM21.5 17H15.07A9.58 9.58 0 0 0 5.5 26.57 7.43 7.43 0 0 0 12.93 34a9.51 9.51 0 0 0 5.66-1.85 9.63 9.63 0 0 0 3.91-7.72V18A1 1 0 0 0 21.5 17zm-1 7.43A7.57 7.57 0 0 1 12.93 32 5.41 5.41 0 0 1 7.5 26.57 7.58 7.58 0 0 1 15.07 19H20.5z" class="colore7600e svgShape"></path></g></svg>